<?xml version="1.0" encoding="utf-8"?>
<!-- Generator: Adobe Illustrator 17.0.0, SVG Export Plug-In . SVG Version: 6.00 Build 0)  -->
<!DOCTYPE svg PUBLIC "-//W3C//DTD SVG 1.1//EN" "http://www.w3.org/Graphics/SVG/1.1/DTD/svg11.dtd">
<svg version="1.1" id="Layer_1" xmlns="http://www.w3.org/2000/svg" xmlns:xlink="http://www.w3.org/1999/xlink" x="0px" y="0px"
	 width="46.746px" height="46.747px" viewBox="0 0 46.746 46.747" enable-background="new 0 0 46.746 46.747" xml:space="preserve">
<path fill="#FFFFFF" d="M23.373,0C10.464,0,0,10.464,0,23.373c0,12.909,10.464,23.373,23.373,23.373s23.373-10.464,23.373-23.373
	C46.746,10.464,36.282,0,23.373,0z M32.2,27.123c0,0.203-0.164,0.369-0.367,0.369h-1.732v4.639c0,0.204-0.166,0.37-0.368,0.37
	h-2.027c-0.202,0-0.368-0.166-0.368-0.37v-4.639h-7.507v4.639c0,0.204-0.165,0.37-0.369,0.37h-2.026c-0.205,0-0.37-0.166-0.37-0.37
	v-4.639h-1.731c-0.204,0-0.37-0.166-0.37-0.369V25.91c0-0.204,0.166-0.369,0.37-0.369h1.731V21.79
	c0.891,0.15,1.815,0.267,2.765,0.354v3.397h2.748v-3.24c0.333,0.009,0.668,0.012,1.006,0.012c0.318,0,0.633-0.003,0.945-0.009v3.237
	h2.809v-3.378c0.95-0.079,1.873-0.192,2.764-0.335v3.713h1.732c0.204,0,0.368,0.165,0.365,0.369V27.123z M34.588,16.045
	c-0.047,0.072-1.104,1.678-1.959,2.584v1.257c0,0.152-0.083,0.293-0.215,0.369c-0.08,0.044-2.018,1.106-8.828,1.106
	c-6.809,0-8.749-1.061-8.828-1.106c-0.132-0.076-0.214-0.217-0.214-0.369v-1.257c-0.855-0.906-1.913-2.512-1.96-2.584
	c-0.099-0.151-0.092-0.349,0.019-0.492c0.112-0.144,0.301-0.201,0.472-0.143c0.043,0.015,4.375,1.473,10.511,1.473
	c6.144,0,10.466-1.458,10.511-1.473c0.17-0.057,0.362-0.001,0.471,0.143C34.679,15.695,34.687,15.894,34.588,16.045z"/>
</svg>
